<?xml version="1.0" standalone="no"?>
<!DOCTYPE svg PUBLIC "-//W3C//DTD SVG 20010904//EN"
 "http://www.w3.org/TR/2001/REC-SVG-20010904/DTD/svg10.dtd">
<svg version="1.0" xmlns="http://www.w3.org/2000/svg"
 width="500.000000pt" height="500.000000pt" viewBox="0 0 500.000000 500.000000"
 preserveAspectRatio="xMidYMid meet">

<g transform="translate(0.000000,500.000000) scale(0.100000,-0.100000)"
fill="#000000" stroke="none">
<path d="M2230 4845 c-913 -102 -1697 -747 -1978 -1627 -67 -209 -100 -399
-109 -633 -24 -644 211 -1259 661 -1722 139 -144 231 -221 393 -330 619 -414
1400 -507 2113 -252 220 79 516 250 698 402 92 78 258 246 332 337 91 111 209
299 281 445 314 641 319 1406 14 2042 -238 497 -602 868 -1090 1109 -404 199
-863 279 -1315 229z m635 -154 c315 -56 591 -165 850 -335 939 -618 1271
-1824 779 -2832 -370 -759 -1146 -1244 -1989 -1244 -601 0 -1151 228 -1574
651 -338 337 -548 751 -628 1234 -25 154 -25 515 0 670 103 631 447 1166 976
1519 256 171 579 296 881 340 164 24 164 24 380 21 153 -2 235 -8 325 -24z"/>
<path d="M2198 3958 c-82 -44 -187 -136 -247 -215 -67 -89 -154 -265 -186
-378 -42 -148 -57 -250 -62 -440 -6 -210 8 -381 68 -825 91 -685 97 -906 32
-1233 -25 -128 -26 -138 -10 -154 15 -15 20 -15 79 1 92 25 254 105 359 177
109 75 264 224 342 329 76 103 217 333 272 445 73 150 150 363 345 955 100
305 205 611 232 680 72 178 187 416 264 542 36 60 63 115 60 123 -15 41 -142
20 -283 -47 -147 -69 -358 -259 -469 -423 -194 -285 -284 -516 -439 -1124
-103 -405 -163 -613 -224 -773 -42 -113 -142 -331 -148 -324 -2 2 5 40 17 84
76 299 82 489 50 1446 -17 486 0 816 57 1080 16 76 16 79 -2 92 -27 20 -43 17
-107 -18z"/>
</g>
</svg>
