<?xml version="1.0" standalone="no"?>
<!DOCTYPE svg PUBLIC "-//W3C//DTD SVG 20010904//EN"
 "http://www.w3.org/TR/2001/REC-SVG-20010904/DTD/svg10.dtd">
<svg version="1.0" xmlns="http://www.w3.org/2000/svg"
 width="500.000000pt" height="500.000000pt" viewBox="0 0 500.000000 500.000000"
 preserveAspectRatio="xMidYMid meet">

<g transform="translate(0.000000,500.000000) scale(0.100000,-0.100000)"
fill="#000000" stroke="none">
<path d="M2225 4848 c-516 -58 -1023 -305 -1396 -680 -378 -379 -622 -886
-678 -1410 -14 -125 -14 -391 0 -516 56 -524 301 -1032 679 -1412 366 -368
852 -609 1363 -675 154 -20 460 -20 614 0 746 97 1412 557 1778 1229 127 234
223 535 261 816 18 141 18 458 -1 607 -102 789 -597 1472 -1321 1823 -222 108
-516 192 -766 219 -114 13 -419 12 -533 -1z m595 -153 c539 -81 1033 -358
1382 -775 511 -612 656 -1460 374 -2201 -287 -758 -948 -1289 -1758 -1416
-156 -24 -480 -24 -636 0 -334 52 -648 174 -916 355 -144 96 -239 177 -362
304 -173 180 -287 342 -394 563 -107 219 -169 417 -207 665 -24 157 -24 463 0
620 76 497 283 908 631 1256 383 383 846 596 1406 648 86 8 376 -4 480 -19z"/>
<path d="M2201 3962 c-70 -35 -173 -122 -238 -202 -30 -36 -82 -123 -118 -195
-167 -335 -185 -666 -79 -1440 64 -470 68 -517 69 -815 0 -277 -1 -289 -29
-428 -31 -153 -30 -174 12 -180 46 -7 252 81 372 159 200 129 350 291 515 554
165 262 250 473 485 1200 224 694 322 935 497 1227 36 60 63 115 60 123 -10
25 -74 29 -140 10 -165 -49 -292 -130 -452 -290 -166 -166 -288 -360 -398
-635 -71 -177 -108 -301 -201 -670 -125 -494 -201 -740 -290 -938 -41 -92 -96
-191 -82 -149 88 269 101 554 66 1532 -15 434 1 751 52 1024 20 110 20 115 2
128 -25 18 -41 16 -103 -15z"/>
</g>
</svg>
