<?xml version="1.0" standalone="no"?>
<!DOCTYPE svg PUBLIC "-//W3C//DTD SVG 20010904//EN"
 "http://www.w3.org/TR/2001/REC-SVG-20010904/DTD/svg10.dtd">
<svg version="1.0" xmlns="http://www.w3.org/2000/svg"
 width="500.000000pt" height="500.000000pt" viewBox="0 0 500.000000 500.000000"
 preserveAspectRatio="xMidYMid meet">

<g transform="translate(0.000000,500.000000) scale(0.100000,-0.100000)"
fill="#000000" stroke="none">
<path d="M2188 4975 c-562 -77 -1053 -319 -1448 -715 -398 -397 -641 -891
-715 -1453 -20 -155 -20 -469 0 -624 74 -562 317 -1056 715 -1453 397 -398
891 -641 1453 -715 155 -20 469 -20 624 0 562 74 1056 317 1453 715 398 397
641 891 715 1453 20 155 20 469 0 624 -74 562 -317 1056 -715 1453 -397 398
-891 641 -1453 715 -145 19 -490 19 -629 0z m641 -130 c253 -37 490 -111 721
-226 235 -117 407 -239 594 -419 386 -373 626 -843 701 -1375 20 -140 20 -515
-1 -654 -85 -579 -367 -1090 -809 -1469 -347 -298 -799 -498 -1247 -552 -133
-17 -574 -7 -688 14 -565 108 -1061 394 -1411 816 -234 282 -395 597 -484 945
-56 221 -68 336 -62 626 5 280 18 376 82 599 254 883 1004 1545 1911 1689 158
25 537 28 693 6z"/>
<path d="M2420 4713 c-848 -27 -1622 -555 -1953 -1333 -125 -294 -178 -559
-178 -887 0 -262 30 -450 113 -698 237 -717 826 -1261 1564 -1444 340 -85 747
-84 1086 3 291 74 591 223 831 413 93 73 277 257 350 350 243 308 399 669 458
1058 22 149 27 456 9 590 -80 595 -368 1107 -830 1475 -108 86 -227 161 -385
240 -329 167 -686 245 -1065 233z m-110 -739 c11 -12 10 -36 -8 -132 -51 -279
-52 -342 -41 -1682 4 -491 3 -508 -18 -625 -13 -66 -30 -145 -38 -175 -8 -30
-13 -55 -11 -57 1 -2 26 45 53 104 101 215 168 426 307 976 94 367 135 506
201 668 140 343 311 585 540 762 167 129 365 205 436 167 10 -6 19 -17 19 -24
0 -7 -23 -51 -51 -97 -74 -121 -178 -330 -252 -509 -57 -137 -164 -451 -367
-1075 -34 -104 -87 -255 -117 -335 -238 -633 -600 -1055 -1041 -1214 -86 -31
-113 -32 -135 -8 -16 17 -15 26 7 125 41 182 49 279 43 526 -5 217 -22 390
-67 706 -64 449 -86 818 -61 1035 35 299 142 541 316 715 132 132 249 193 285
149z"/>
</g>
</svg>
