<?xml version="1.0" standalone="no"?>
<!DOCTYPE svg PUBLIC "-//W3C//DTD SVG 20010904//EN"
 "http://www.w3.org/TR/2001/REC-SVG-20010904/DTD/svg10.dtd">
<svg version="1.0" xmlns="http://www.w3.org/2000/svg"
 width="500.000000pt" height="500.000000pt" viewBox="0 0 500.000000 500.000000"
 preserveAspectRatio="xMidYMid meet">

<g transform="translate(0.000000,500.000000) scale(0.100000,-0.100000)"
fill="#000000" stroke="none">
<path d="M2295 3983 c-22 -3 -44 -9 -49 -14 -6 -5 -19 -9 -31 -9 -12 0 -30 -7
-41 -15 -10 -8 -27 -15 -37 -15 -9 0 -34 -18 -56 -40 -21 -22 -43 -40 -49 -40
-13 0 -77 -72 -96 -107 -8 -16 -26 -35 -40 -43 -14 -7 -26 -19 -26 -25 0 -7
-7 -18 -16 -26 -9 -7 -14 -22 -11 -36 3 -17 -3 -29 -20 -43 -15 -12 -23 -26
-19 -35 3 -9 0 -15 -10 -15 -8 0 -14 -6 -12 -12 1 -7 -2 -23 -6 -36 -5 -14 -3
-28 4 -37 7 -9 11 -47 9 -107 -3 -104 15 -171 66 -243 12 -16 27 -52 34 -80 7
-27 16 -52 21 -55 4 -3 24 -54 45 -115 20 -60 42 -120 50 -135 7 -14 30 -59
49 -100 20 -43 55 -95 82 -123 26 -26 43 -51 39 -55 -4 -4 -10 -1 -12 6 -3 7
-22 12 -45 12 -35 0 -39 -2 -33 -21 6 -18 4 -20 -17 -14 -12 4 -30 13 -38 19
-17 13 -39 14 -57 3 -7 -4 -21 -3 -32 3 -16 8 -21 6 -26 -10 -7 -21 -41 -28
-47 -10 -4 12 -80 -1 -159 -26 -30 -10 -60 -12 -89 -8 -30 5 -41 4 -36 -4 9
-15 -13 -27 -27 -13 -8 8 -7 11 3 13 8 1 -21 5 -65 8 -84 8 -186 30 -220 47
-11 6 -27 8 -35 6 -8 -2 -2 3 13 12 26 15 54 62 43 73 -3 2 -17 -3 -30 -12
-30 -19 -77 -21 -94 -4 -14 14 -16 68 -2 68 6 0 10 -5 10 -11 0 -5 4 -8 10 -4
5 3 7 12 4 20 -4 9 -16 12 -40 8 -19 -3 -34 -2 -34 3 0 5 -16 9 -36 10 -31 0
-35 -2 -30 -20 3 -12 6 -24 6 -28 0 -3 8 -4 19 -1 21 5 31 -28 25 -91 -4 -48
-9 -53 -29 -32 -9 9 -24 16 -32 16 -12 0 -9 -7 11 -25 14 -13 26 -26 26 -28 0
-2 -39 -23 -87 -47 -49 -23 -100 -49 -116 -57 -15 -8 -36 -12 -46 -8 -10 3
-24 -1 -31 -10 -8 -10 -30 -15 -66 -15 -51 0 -54 1 -54 25 0 30 -24 33 -59 9
-17 -12 -25 -14 -30 -5 -4 6 -15 9 -24 5 -10 -3 -17 -1 -17 5 0 21 -18 11 -24
-14 -7 -29 -21 -32 -35 -7 -9 15 -10 15 -11 0 0 -26 -50 -32 -262 -30 l-198 2
0 -23 c0 -23 11 -91 31 -194 l10 -53 112 0 112 0 -1 43 c-2 58 18 71 118 73
42 1 82 5 87 9 17 10 13 25 -6 25 -12 0 -14 3 -6 11 12 12 53 3 53 -12 0 -5
-4 -9 -8 -9 -5 0 -7 -19 -6 -42 1 -34 7 -44 29 -55 21 -12 29 -12 41 -2 13 11
11 16 -13 37 -16 15 -21 22 -11 19 13 -5 22 2 34 24 15 30 16 30 33 12 10 -10
15 -22 11 -28 -4 -5 -10 -19 -14 -31 -6 -18 -2 -20 46 -22 72 -3 67 -3 126 4
48 6 53 5 50 -11 -3 -17 6 -19 107 -18 61 0 205 4 320 8 116 5 359 8 540 9
297 1 332 3 355 19 42 30 54 20 21 -18 -24 -28 -31 -45 -31 -78 0 -23 4 -37 8
-32 4 6 16 12 27 13 11 1 27 3 35 4 31 4 110 -25 141 -53 29 -26 30 -29 15
-45 -22 -21 -92 -42 -133 -39 -26 1 -31 -1 -22 -12 22 -25 148 -10 242 29 36
16 45 24 37 33 -6 7 -10 17 -8 21 1 5 -3 19 -10 30 -6 12 -9 24 -6 27 3 3 -6
23 -20 44 -14 20 -26 44 -26 53 0 8 -7 35 -16 59 -8 24 -11 48 -7 52 5 5 25 2
46 -5 20 -7 34 -16 30 -19 -12 -13 61 5 98 24 43 21 63 44 54 60 -4 6 -1 22 6
36 11 20 11 26 0 32 -17 11 75 41 123 41 28 0 36 4 36 18 0 9 23 40 50 69 28
29 50 57 50 63 0 5 7 10 15 10 8 0 15 -8 15 -18 0 -9 14 -45 30 -80 17 -34 28
-66 25 -71 -6 -11 9 -28 58 -61 20 -14 37 -28 37 -32 0 -5 6 -8 13 -8 7 0 30
-9 52 -20 21 -11 41 -18 43 -15 3 3 0 5 -7 5 -7 0 -9 4 -6 10 12 19 72 10 109
-15 20 -14 44 -25 53 -25 8 0 34 -16 56 -36 22 -20 65 -48 96 -62 54 -25 61
-26 226 -22 256 5 302 5 394 -5 l83 -8 -7 23 c-5 15 -4 20 4 16 6 -4 11 -15
12 -24 0 -14 2 -15 7 -2 13 29 45 58 58 53 19 -7 18 -23 -2 -23 -9 0 -14 -7
-12 -17 3 -15 16 -19 72 -21 41 -2 66 0 62 6 -3 5 3 17 14 27 18 16 20 16 43
-9 23 -25 30 -26 122 -26 85 0 96 2 85 15 -11 13 -8 15 14 15 16 0 26 -5 26
-15 0 -13 20 -15 123 -15 l122 0 13 53 c21 86 42 294 42 424 l0 121 -102 6
c-57 3 -148 8 -203 10 -55 2 -228 10 -385 17 -355 15 -527 4 -730 -46 -74 -18
-211 -50 -305 -70 -93 -20 -187 -43 -207 -52 -27 -11 -41 -13 -50 -5 -7 5 -24
12 -38 14 -21 2 -26 10 -34 51 -7 40 -4 61 19 130 19 58 28 113 32 187 5 83
10 111 26 132 16 22 19 36 14 75 l-7 48 20 -23 19 -22 6 22 c4 13 13 30 20 38
10 11 12 49 10 147 -3 115 -8 149 -33 223 -3 8 -6 26 -7 40 -1 14 -5 32 -8 40
-3 8 -11 36 -18 62 -7 26 -18 46 -23 45 -6 -1 -15 12 -20 29 -7 22 -20 35 -47
47 -20 9 -74 50 -118 92 -44 41 -88 75 -96 75 -9 0 -30 7 -48 17 -17 9 -54 17
-81 19 -26 1 -53 7 -59 13 -6 6 -25 11 -43 11 -17 0 -45 7 -60 15 -28 14 -64
16 -149 8z m448 -523 c25 0 49 -44 45 -82 -2 -24 -8 -33 -20 -32 -24 2 -23 -5
5 -29 l22 -20 -50 6 c-27 3 -57 1 -65 -3 -9 -5 -37 -10 -63 -12 -26 -2 -53
-10 -59 -16 -7 -7 -21 -12 -31 -12 -10 0 -33 -10 -50 -22 -34 -24 -69 -27
-172 -15 -33 4 -67 8 -75 9 -38 2 -39 19 -2 55 20 19 47 42 60 50 13 9 22 26
22 41 0 14 12 41 26 60 26 33 29 34 73 27 25 -4 60 -8 76 -8 17 -1 32 -5 35
-9 3 -4 21 2 40 14 19 12 43 21 52 19 10 -1 26 2 35 8 13 7 26 4 49 -10 17
-10 39 -19 47 -19z m119 -177 c-6 -2 -10 -8 -8 -12 6 -9 -103 4 -112 13 -3 3
26 6 64 5 38 0 63 -3 56 -6z m-57 -76 c15 -16 14 -17 -22 -16 -30 0 -34 2 -18
9 15 7 10 9 -23 9 -24 1 -41 5 -38 10 10 15 83 6 101 -12z m5 -62 c10 -12 7
-15 -15 -21 -30 -7 -54 14 -32 28 18 12 33 10 47 -7z m97 -27 c-3 -8 -6 -5 -6
6 -1 11 2 17 5 13 3 -3 4 -12 1 -19z m-408 -49 c40 -62 128 -161 133 -150 2 5
48 18 103 30 108 23 141 40 166 88 l16 31 16 -46 c20 -54 22 -113 6 -129 -8
-8 -5 -14 11 -23 20 -10 21 -17 15 -57 -8 -55 -34 -113 -51 -113 -6 0 -14 -14
-18 -31 -5 -25 -9 -29 -26 -24 -13 4 -20 2 -20 -7 0 -10 -12 -14 -37 -14 -22
1 -37 -4 -39 -12 -1 -7 0 -8 3 -2 5 12 23 4 23 -11 0 -5 -12 -9 -27 -10 -27 0
-27 -1 -5 -9 27 -12 29 -24 2 -17 -26 7 -35 -9 -13 -22 10 -6 12 -11 6 -11 -7
0 -13 -10 -13 -21 0 -18 -3 -19 -15 -9 -11 9 -19 9 -35 -3 -23 -16 -11 -33 15
-23 8 3 17 1 20 -4 4 -6 1 -10 -5 -10 -6 0 -8 -4 -5 -10 3 -5 0 -10 -9 -10 -8
0 -17 6 -19 13 -3 6 -6 2 -6 -10 -1 -16 -7 -23 -21 -23 -12 0 -20 -7 -20 -16
0 -11 -6 -15 -20 -11 -11 3 -20 1 -20 -4 0 -17 -49 -29 -95 -22 -24 3 -42 9
-40 14 3 4 -3 12 -12 18 -17 9 -17 11 2 25 16 12 17 17 8 27 -10 10 -17 10
-37 0 -21 -12 -27 -11 -47 8 -20 18 -21 21 -5 21 13 0 16 5 12 16 -5 14 -1 16
23 11 16 -4 31 -2 33 3 2 5 22 3 47 -3 35 -10 45 -9 48 1 3 6 11 12 19 12 8 0
14 7 14 15 0 11 -11 15 -36 15 -29 0 -34 3 -25 13 14 18 4 27 -29 27 -33 0
-58 24 -38 36 7 5 18 9 23 10 6 1 23 5 39 8 16 3 48 8 71 12 42 6 42 5 38 -20
-3 -15 -9 -29 -14 -32 -21 -13 -6 -22 20 -13 17 6 48 34 72 67 50 66 68 84 81
76 10 -6 37 26 50 58 9 23 -15 49 -73 78 l-41 21 17 -28 c9 -16 30 -35 46 -42
16 -7 29 -17 29 -22 0 -6 -8 -5 -20 1 -11 6 -25 8 -30 5 -15 -9 -1 -27 16 -21
7 3 16 1 19 -4 4 -6 -3 -11 -14 -11 -19 -1 -37 -5 -43 -8 -2 0 -55 -3 -118 -5
-63 -1 -119 -4 -125 -6 -5 -1 -30 -2 -55 -1 -33 1 -41 4 -30 11 8 5 29 10 45
10 19 0 35 7 42 19 7 11 29 27 50 36 58 25 67 31 71 43 4 14 -64 -4 -93 -24
-25 -18 -79 -18 -94 0 -9 11 -9 25 0 62 9 36 10 49 1 52 -13 4 -17 143 -5 155
17 18 41 3 72 -44z m319 -28 c-1 -9 1 -21 5 -28 5 -8 -5 -15 -30 -22 -56 -16
-84 -14 -76 5 3 8 12 13 20 10 10 -4 14 0 12 17 -5 33 7 44 41 39 22 -3 30 -9
28 -21z m52 -35 c0 -2 -7 -7 -16 -10 -8 -3 -12 -2 -9 4 6 10 25 14 25 6z
m-480 -121 c-12 -14 -40 -21 -40 -10 0 4 7 20 17 38 16 31 16 31 26 10 7 -16
6 -27 -3 -38z m-120 -25 c0 -5 -10 -18 -22 -29 -62 -59 -76 -129 -34 -178 21
-24 26 -26 40 -14 9 8 18 12 20 10 16 -21 36 -55 36 -62 0 -4 -10 -7 -22 -5
-14 2 -22 -2 -20 -9 1 -7 -2 -13 -8 -13 -5 0 -10 10 -11 23 0 12 -3 16 -6 10
-9 -23 -28 -13 -54 28 -22 35 -25 47 -18 73 12 41 12 86 0 68 -6 -11 -17 -5
-45 24 -45 46 -39 54 52 70 87 16 92 16 92 4z m410 -141 c0 -5 6 -7 13 -4 6 4
0 -4 -15 -17 -16 -13 -38 -25 -50 -25 -13 -1 -70 -9 -126 -18 -114 -18 -132
-16 -132 16 0 14 5 19 14 16 8 -3 17 0 19 7 3 7 25 13 52 14 26 1 55 7 64 12
22 13 161 13 161 -1z m1380 -223 c-7 -7 -10 12 -9 50 l1 59 9 -50 c5 -30 4
-54 -1 -59z m48 34 c2 -42 0 -60 -7 -55 -6 3 -11 33 -11 66 0 78 14 69 18 -11z
m802 30 c0 -15 -26 -23 -41 -14 -9 5 -7 10 7 15 27 11 34 10 34 -1z m0 -44 c0
-3 -4 -8 -10 -11 -5 -3 -10 -1 -10 4 0 6 5 11 10 11 6 0 10 -2 10 -4z m-3766
-37 c-3 -5 -10 -7 -15 -3 -5 3 -7 10 -3 15 3 5 10 7 15 3 5 -3 7 -10 3 -15z
m1961 -39 c3 -6 -1 -7 -9 -4 -18 7 -21 14 -7 14 6 0 13 -4 16 -10z m825 0 c0
-5 -4 -10 -10 -10 -5 0 -10 5 -10 10 0 6 5 10 10 10 6 0 10 -4 10 -10z m-1900
-30 c0 -5 -4 -10 -10 -10 -5 0 -10 5 -10 10 0 6 5 10 10 10 6 0 10 -4 10 -10z
m1017 4 c-3 -3 -12 -4 -19 -1 -8 3 -5 6 6 6 11 1 17 -2 13 -5z m-1107 -14 c0
-5 -5 -10 -11 -10 -5 0 -7 5 -4 10 3 6 8 10 11 10 2 0 4 -4 4 -10z m247 4 c-3
-3 -12 -4 -19 -1 -8 3 -5 6 6 6 11 1 17 -2 13 -5z m1373 2 c0 -3 -4 -8 -10
-11 -5 -3 -10 -1 -10 4 0 6 5 11 10 11 6 0 10 -2 10 -4z m-494 -53 c-10 -10
-19 5 -10 18 6 11 8 11 12 0 2 -7 1 -15 -2 -18z m1836 -3 c6 0 8 -3 5 -7 -10
-9 -57 -13 -57 -4 0 14 14 22 28 16 7 -3 19 -5 24 -5z m-622 -17 c0 -10 9 -29
19 -43 l19 -24 7 36 c7 36 29 56 41 37 3 -5 3 -17 0 -26 -4 -8 -2 -21 3 -27
15 -18 -4 -43 -22 -28 -11 9 -13 8 -13 -8 1 -10 -2 -19 -6 -20 -40 -2 -58 2
-53 10 7 11 -10 46 -21 43 -4 -1 -10 -6 -14 -12 -3 -7 -14 -9 -23 -5 -18 7
-13 25 6 23 7 -1 20 -1 31 0 15 1 16 4 6 16 -7 8 -19 15 -26 15 -15 0 -19 12
-7 23 14 15 53 7 53 -10z m-142 -18 c12 -27 5 -40 -14 -24 -8 6 -20 9 -27 6
-8 -3 -20 -1 -28 4 -12 8 -11 11 2 22 28 21 56 18 67 -8z m72 -9 c0 -5 -7 -3
-15 4 -8 7 -12 17 -9 22 7 10 24 -9 24 -26z m330 0 c0 -11 -19 -15 -25 -6 -3
5 1 10 9 10 9 0 16 -2 16 -4z m375 -37 c16 -30 16 -31 -4 -24 -16 5 -21 2 -21
-11 0 -26 -13 -8 -16 23 -3 22 8 42 23 43 1 0 10 -14 18 -31z m-377 6 c9 -9
-19 -34 -34 -28 -8 3 -33 6 -56 7 -33 1 -44 5 -46 20 -4 18 1 19 63 13 37 -4
70 -9 73 -12z m247 -1 c32 -21 34 -48 3 -38 -31 9 -68 34 -68 45 0 15 39 10
65 -7z m-1405 -4 c0 -5 -4 -10 -9 -10 -6 0 -13 5 -16 10 -3 6 1 10 9 10 9 0
16 -4 16 -10z m760 -10 c0 -5 -2 -10 -4 -10 -3 0 -8 5 -11 10 -3 6 -1 10 4 10
6 0 11 -4 11 -10z m455 0 c19 -8 19 -9 -2 -9 -12 -1 -25 4 -28 9 -7 12 2 12
30 0z m-2854 -15 c-1 -15 -24 -12 -29 3 -3 9 2 13 12 10 10 -1 17 -7 17 -13z
m870 -22 c-7 -43 -21 -51 -45 -24 -22 25 -15 48 16 54 13 2 26 5 29 6 3 0 3
-16 0 -36z m1419 17 c0 -5 -2 -10 -4 -10 -3 0 -8 5 -11 10 -3 6 -1 10 4 10 6
0 11 -4 11 -10z m-1955 -70 c10 -11 14 -20 9 -20 -5 0 -15 9 -22 20 -7 11 -11
20 -9 20 2 0 12 -9 22 -20z m-1395 0 c0 -11 -95 -8 -107 3 -3 4 19 7 50 7 32
0 57 -4 57 -10z m65 0 c3 -5 -1 -10 -9 -10 -9 0 -16 5 -16 10 0 6 4 10 9 10 6
0 13 -4 16 -10z m3380 -70 c3 -5 1 -10 -4 -10 -6 0 -11 5 -11 10 0 6 2 10 4
10 3 0 8 -4 11 -10z m-3308 -16 c2 -7 -12 -14 -34 -16 -46 -6 -52 -2 -27 17
21 17 55 16 61 -1z m197 7 c6 -10 -16 -21 -41 -21 -13 0 -13 3 -3 15 14 17 36
20 44 6z m336 -1 c0 -5 -4 -10 -10 -10 -5 0 -10 5 -10 10 0 6 5 10 10 10 6 0
10 -4 10 -10z m40 0 c0 -5 -4 -10 -10 -10 -5 0 -10 5 -10 10 0 6 5 10 10 10 6
0 10 -4 10 -10z m2100 -16 c0 -8 -5 -12 -10 -9 -6 4 -8 11 -5 16 9 14 15 11
15 -7z m740 6 c0 -5 -2 -10 -4 -10 -3 0 -8 5 -11 10 -3 6 -1 10 4 10 6 0 11
-4 11 -10z m-36 -21 c-3 -5 -10 -7 -15 -3 -5 3 -7 10 -3 15 3 5 10 7 15 3 5
-3 7 -10 3 -15z m-3062 -24 c3 -14 2 -25 -3 -25 -12 0 -30 36 -22 44 12 12 21
6 25 -19z m2433 15 c3 -5 -1 -10 -9 -10 -9 0 -16 5 -16 10 0 6 4 10 9 10 6 0
13 -4 16 -10z m665 -6 c0 -8 -4 -12 -10 -9 -5 3 -10 10 -10 16 0 5 5 9 10 9 6
0 10 -7 10 -16z m-530 -30 c0 -2 -9 -4 -20 -4 -11 0 -20 4 -20 9 0 5 9 7 20 4
11 -3 20 -7 20 -9z"/>
<path d="M2596 2818 c3 -4 -2 -8 -10 -8 -9 0 -16 -5 -16 -11 0 -7 9 -9 23 -5
12 3 32 6 45 6 32 0 19 17 -17 22 -17 2 -28 1 -25 -4z"/>
<path d="M2880 2760 c0 -5 5 -10 10 -10 6 0 10 5 10 10 0 6 -4 10 -10 10 -5 0
-10 -4 -10 -10z"/>
<path d="M2795 2670 c-9 -14 3 -30 23 -30 15 0 15 2 2 10 -11 7 -11 10 -2 10
7 0 10 5 7 10 -3 6 -10 10 -15 10 -5 0 -12 -4 -15 -10z"/>
<path d="M2726 2537 c3 -10 9 -15 12 -12 3 3 0 11 -7 18 -10 9 -11 8 -5 -6z"/>
<path d="M2654 2474 c-7 -3 -10 -14 -7 -24 8 -28 21 -25 19 5 0 14 -1 25 -1
24 0 0 -5 -3 -11 -5z"/>
<path d="M3230 2839 c0 -5 5 -7 10 -4 6 3 10 8 10 11 0 2 -4 4 -10 4 -5 0 -10
-5 -10 -11z"/>
<path d="M1121 2641 c-12 -8 -12 -12 -2 -25 15 -18 47 -21 56 -6 6 10 -17 40
-32 40 -4 0 -14 -4 -22 -9z"/>
<path d="M982 2409 c2 -6 7 -10 11 -10 4 1 17 1 30 2 21 0 21 1 2 9 -28 12
-47 12 -43 -1z"/>
<path d="M2842 2328 c-7 -7 -12 -17 -12 -22 0 -6 6 -4 13 5 7 9 19 18 27 22
13 5 13 6 0 6 -9 1 -21 -4 -28 -11z"/>
<path d="M371 2274 c0 -11 3 -14 6 -6 3 7 2 16 -1 19 -3 4 -6 -2 -5 -13z"/>
<path d="M2768 2268 c9 -9 15 -9 24 0 9 9 7 12 -12 12 -19 0 -21 -3 -12 -12z"/>
<path d="M3231 2128 c0 -7 4 -22 9 -33 8 -18 9 -17 9 7 1 15 -3 30 -9 33 -5 3
-10 0 -9 -7z"/>
<path d="M412 2035 c-15 -11 -32 -14 -57 -9 -23 4 -35 2 -35 -5 0 -6 8 -11 19
-11 10 0 35 -7 54 -15 42 -18 83 -19 92 -4 11 17 -2 21 -26 9 -19 -11 -21 -10
-16 5 4 9 7 19 7 21 0 2 7 4 16 4 8 0 12 5 9 10 -9 15 -37 12 -63 -5z"/>
<path d="M3206 1973 c-6 -14 -5 -15 5 -6 7 7 10 15 7 18 -3 3 -9 -2 -12 -12z"/>
<path d="M353 1973 c9 -2 25 -2 35 0 9 3 1 5 -18 5 -19 0 -27 -2 -17 -5z"/>
<path d="M3155 1904 c-38 -44 -43 -46 -110 -53 -66 -6 -68 -7 -32 -14 20 -5
42 -5 47 -2 6 3 10 1 10 -5 0 -22 100 63 121 102 14 27 8 22 -36 -28z"/>
<path d="M3738 1913 c-21 -5 -24 -33 -4 -33 8 0 12 -7 10 -17 -3 -12 10 -29
39 -50 l42 -32 3 42 c2 23 8 44 13 48 6 3 -10 12 -35 19 -25 7 -43 16 -40 21
5 9 1 10 -28 2z"/>
<path d="M1940 1890 c-13 -8 -13 -10 2 -10 9 0 20 5 23 10 8 13 -5 13 -25 0z"/>
<path d="M3477 1846 c-4 -9 3 -16 17 -18 19 -4 22 -1 18 14 -5 21 -28 24 -35
4z"/>
<path d="M1685 1790 c-18 -20 -17 -20 26 -19 41 1 42 1 16 11 -15 5 -25 14
-21 19 9 16 -2 10 -21 -11z"/>
<path d="M1510 1756 c-33 -12 -35 -16 -38 -61 -2 -28 2 -52 9 -59 9 -8 10 -7
6 6 -3 10 -2 20 4 23 5 4 8 1 7 -6 -2 -6 3 -14 11 -17 8 -2 11 0 7 6 -4 6 2 8
14 5 19 -5 26 5 21 31 -1 5 5 3 14 -4 22 -19 25 -11 12 43 -11 51 -14 52 -67
33z"/>
<path d="M1843 1686 c-30 -14 -29 -26 2 -26 18 0 25 5 25 20 0 11 -1 19 -2 19
-2 -1 -13 -6 -25 -13z"/>
<path d="M1748 1684 c6 -3 12 -12 12 -20 0 -9 10 -14 27 -14 24 0 25 2 13 14
-8 8 -26 17 -40 20 -14 3 -19 3 -12 0z"/>
<path d="M3207 1634 c-10 -11 -9 -54 2 -54 6 0 12 4 15 9 8 12 -8 54 -17 45z"/>
<path d="M3168 1583 c7 -3 16 -2 19 1 4 3 -2 6 -13 5 -11 0 -14 -3 -6 -6z"/>
<path d="M2930 1571 c0 -7 -4 -9 -10 -6 -6 4 -10 -14 -10 -46 0 -58 10 -56 30
4 9 29 9 42 1 50 -8 8 -11 8 -11 -2z"/>
<path d="M3630 1560 c0 -6 5 -10 12 -10 6 0 9 -3 5 -6 -6 -7 19 -64 28 -64 3
0 5 19 5 43 0 38 -3 43 -25 45 -14 1 -25 -3 -25 -8z"/>
<path d="M2072 1524 c-12 -8 -22 -20 -22 -26 0 -7 6 -6 15 2 13 11 15 5 15
-44 l0 -56 34 0 34 0 5 63 c4 62 -6 95 -22 68 -6 -9 -11 -10 -15 -2 -9 15 -17
14 -44 -5z"/>
<path d="M4006 1531 c-4 -5 -2 -12 3 -16 6 -3 8 -13 5 -23 -5 -16 -5 -16 6 1
6 9 18 17 26 17 9 0 14 6 12 13 -6 15 -44 22 -52 8z"/>
<path d="M2401 1494 c0 -11 3 -14 6 -6 3 7 2 16 -1 19 -3 4 -6 -2 -5 -13z"/>
<path d="M3149 1469 c-14 -27 -11 -35 16 -47 33 -15 32 -16 37 13 3 14 1 25
-3 25 -5 0 -9 6 -9 13 0 20 -29 17 -41 -4z"/>
<path d="M1658 1473 c7 -3 16 -2 19 1 4 3 -2 6 -13 5 -11 0 -14 -3 -6 -6z"/>
<path d="M3445 1450 c-19 -21 -19 -40 0 -40 15 0 14 -19 -1 -67 -2 -9 11 -13
45 -13 l48 0 7 61 c8 67 4 78 -19 59 -8 -7 -15 -8 -15 -2 0 18 -49 20 -65 2z
m75 -74 c0 -3 -4 -8 -10 -11 -5 -3 -10 -1 -10 4 0 6 5 11 10 11 6 0 10 -2 10
-4z"/>
<path d="M1755 1400 c-3 -5 -1 -10 4 -10 6 0 11 5 11 10 0 6 -2 10 -4 10 -3 0
-8 -4 -11 -10z"/>
<path d="M1823 1380 c4 -17 1 -19 -19 -14 -15 4 -24 2 -24 -6 0 -6 4 -9 9 -6
12 7 3 -56 -9 -68 -6 -6 -14 3 -21 20 -6 17 -13 24 -16 16 -3 -7 0 -19 7 -27
6 -8 9 -19 5 -25 -4 -6 -3 -10 2 -9 27 5 52 -3 56 -18 4 -14 5 -12 6 5 0 12 6
22 12 22 6 0 3 7 -5 16 -21 20 -20 26 4 57 11 14 17 32 14 41 -9 23 -27 20
-21 -4z"/>
<path d="M3140 1373 c0 -15 28 -17 49 -4 9 6 4 10 -18 13 -21 3 -31 0 -31 -9z"/>
<path d="M3340 1379 c0 -5 5 -7 10 -4 6 3 10 8 10 11 0 2 -4 4 -10 4 -5 0 -10
-5 -10 -11z"/>
<path d="M1615 1313 c-4 -32 -10 -73 -15 -90 -8 -30 -6 -33 14 -33 40 0 55 21
60 83 2 32 6 61 10 64 17 17 4 33 -28 33 l-35 0 -6 -57z"/>
<path d="M1862 1355 c4 -4 0 -14 -10 -21 -9 -7 -14 -15 -11 -18 3 -3 14 2 23
13 14 15 15 21 4 27 -7 4 -10 4 -6 -1z"/>
<path d="M1769 1318 c4 -28 6 -29 9 -9 2 13 0 27 -5 32 -6 6 -7 -3 -4 -23z"/>
<path d="M1521 1284 c0 -11 3 -14 6 -6 3 7 2 16 -1 19 -3 4 -6 -2 -5 -13z"/>
<path d="M1130 1250 c-7 -17 -10 -33 -8 -36 3 -2 11 9 18 26 7 17 10 33 8 36
-3 2 -11 -9 -18 -26z"/>
<path d="M2030 1270 c0 -6 7 -10 15 -10 8 0 15 2 15 4 0 2 -7 6 -15 10 -8 3
-15 1 -15 -4z"/>
<path d="M3470 1270 c-8 -5 -10 -10 -5 -10 6 0 17 5 25 10 8 5 11 10 5 10 -5
0 -17 -5 -25 -10z"/>
<path d="M1727 1255 c-4 -8 -3 -16 1 -19 4 -3 9 4 9 15 2 23 -3 25 -10 4z"/>
<path d="M1509 1258 c-6 -22 -5 -38 3 -38 7 0 6 -5 -1 -14 -9 -11 -9 -16 0
-22 8 -4 9 -3 5 4 -4 7 -2 12 3 12 14 0 14 -27 1 -33 -6 -3 -5 -4 2 -3 8 2 14
21 16 49 2 37 0 47 -12 47 -9 0 -16 -1 -17 -2z"/>
<path d="M3417 1238 c-14 -13 -28 -39 -31 -58 -4 -25 -3 -31 4 -20 5 8 10 22
10 29 0 8 12 28 27 43 32 33 24 37 -10 6z"/>
<path d="M3646 1205 c4 -8 8 -15 10 -15 2 0 4 7 4 15 0 8 -4 15 -10 15 -5 0
-7 -7 -4 -15z"/>
<path d="M3595 1160 c3 -5 15 -10 25 -10 11 0 20 -8 22 -22 2 -12 9 -23 16
-24 7 -1 8 0 2 3 -5 2 -10 12 -10 22 0 9 -5 22 -12 29 -14 14 -52 16 -43 2z"/>
<path d="M2182 1130 c0 -14 2 -19 5 -12 2 6 2 18 0 25 -3 6 -5 1 -5 -13z"/>
<path d="M2120 1136 c0 -2 7 -6 15 -10 8 -3 15 -1 15 4 0 6 -7 10 -15 10 -8 0
-15 -2 -15 -4z"/>
<path d="M3450 1131 c0 -5 7 -14 15 -21 11 -9 15 -9 15 -1 0 7 5 9 10 6 6 -3
10 1 10 9 0 10 -9 16 -25 16 -14 0 -25 -4 -25 -9z"/>
<path d="M3567 1126 c-4 -10 -1 -13 9 -9 7 3 14 9 14 14 0 14 -17 10 -23 -5z"/>
<path d="M4320 1120 c-9 -6 -10 -10 -3 -10 6 0 15 5 18 10 8 12 4 12 -15 0z"/>
<path d="M4096 1108 c3 -5 10 -6 15 -3 13 9 11 12 -6 12 -8 0 -12 -4 -9 -9z"/>
<path d="M3601 1084 c-12 -14 -21 -28 -18 -30 6 -6 47 36 47 48 0 11 -2 10
-29 -18z"/>
<path d="M2850 1091 c0 -6 5 -13 10 -16 6 -3 10 1 10 9 0 9 -4 16 -10 16 -5 0
-10 -4 -10 -9z"/>
<path d="M3510 1089 c0 -5 5 -7 10 -4 6 3 10 8 10 11 0 2 -4 4 -10 4 -5 0 -10
-5 -10 -11z"/>
<path d="M2021 1074 c0 -11 3 -14 6 -6 3 7 2 16 -1 19 -3 4 -6 -2 -5 -13z"/>
<path d="M4290 1079 c0 -5 -4 -7 -10 -4 -5 3 -10 1 -10 -4 0 -6 7 -11 15 -11
8 0 15 7 15 15 0 8 -2 15 -5 15 -3 0 -5 -5 -5 -11z"/>
<path d="M4096 1072 c-2 -4 4 -8 14 -8 10 0 16 4 14 8 -3 4 -9 8 -14 8 -5 0
-11 -4 -14 -8z"/>
<path d="M1280 1051 c0 -6 4 -13 10 -16 6 -3 7 1 4 9 -7 18 -14 21 -14 7z"/>
<path d="M3293 1010 c0 -25 2 -35 4 -22 2 12 2 32 0 45 -2 12 -4 2 -4 -23z"/>
<path d="M3500 1030 c-9 -6 -10 -10 -3 -10 6 0 15 5 18 10 8 12 4 12 -15 0z"/>
<path d="M4091 1024 c0 -11 3 -14 6 -6 3 7 2 16 -1 19 -3 4 -6 -2 -5 -13z"/>
<path d="M2276 1005 c-3 -8 -1 -15 4 -15 6 0 10 7 10 15 0 8 -2 15 -4 15 -2 0
-6 -7 -10 -15z"/>
<path d="M1273 984 c-33 -37 -35 -43 -13 -37 16 4 19 2 13 -12 -4 -12 -3 -16
5 -11 11 7 28 73 21 81 -3 2 -14 -8 -26 -21z"/>
<path d="M3465 988 c-8 -13 -32 -35 -52 -50 -20 -16 -30 -28 -22 -28 16 0 99
76 99 91 0 15 -8 11 -25 -13z"/>
<path d="M4270 994 c0 -8 5 -12 10 -9 6 3 10 10 10 16 0 5 -4 9 -10 9 -5 0
-10 -7 -10 -16z"/>
<path d="M2690 990 c0 -5 5 -10 11 -10 5 0 7 5 4 10 -3 6 -8 10 -11 10 -2 0
-4 -4 -4 -10z"/>
<path d="M4239 993 c-1 -5 -1 -11 0 -15 0 -5 -5 -8 -13 -8 -8 0 -17 -4 -21
-10 -3 -6 5 -5 23 1 16 5 29 16 29 24 0 15 -16 21 -18 8z"/>
<path d="M1142 965 c0 -16 2 -22 5 -12 2 9 2 23 0 30 -3 6 -5 -1 -5 -18z"/>
<path d="M1330 980 c0 -13 20 -13 40 0 12 8 9 10 -12 10 -16 0 -28 -4 -28 -10z"/>
<path d="M3848 966 c-3 -16 0 -27 10 -31 10 -4 12 0 8 11 -5 14 -4 15 9 4 13
-10 15 -9 15 8 0 11 -7 23 -16 26 -22 8 -21 9 -26 -18z"/>
<path d="M2606 961 c-10 -16 5 -39 27 -43 48 -8 81 18 37 29 -11 3 -20 9 -20
14 0 12 -37 12 -44 0z"/>
<path d="M1338 932 c-22 -4 -23 -19 -2 -24 13 -3 13 -6 1 -22 -13 -18 -14 -18
-35 -1 -12 10 -31 20 -44 22 -18 3 -16 -1 12 -18 19 -12 37 -25 38 -30 6 -15
27 -10 45 11 9 11 14 20 11 20 -4 0 -1 6 5 14 14 17 -5 34 -31 28z"/>
<path d="M3113 928 c-7 -9 -6 -37 3 -83 7 -38 13 -85 13 -102 1 -31 3 -33 36
-33 25 0 37 5 41 18 3 9 13 32 22 50 15 32 15 35 -1 43 -23 13 -21 29 3 29 21
0 25 16 14 58 -5 18 -13 22 -44 22 -28 0 -40 -5 -43 -17 -4 -15 -6 -15 -12 5
-8 25 -18 28 -32 10z m47 -68 c0 -5 -2 -10 -4 -10 -3 0 -8 5 -11 10 -3 6 -1
10 4 10 6 0 11 -4 11 -10z m10 -50 c0 -5 -4 -10 -10 -10 -5 0 -10 5 -10 10 0
6 5 10 10 10 6 0 10 -4 10 -10z"/>
<path d="M1096 904 c-6 -15 -9 -16 -16 -5 -7 12 -11 12 -25 -2 -15 -15 -14
-18 17 -30 18 -8 37 -12 43 -9 5 3 3 8 -3 10 -9 3 -10 8 -3 16 5 6 6 18 2 25
-6 10 -10 8 -15 -5z"/>
<path d="M1675 899 c-4 -6 -5 -12 -2 -15 2 -3 7 2 10 11 7 17 1 20 -8 4z"/>
<path d="M3701 905 c1 -19 18 -51 18 -35 0 8 -4 22 -9 30 -5 8 -9 11 -9 5z"/>
<path d="M3325 876 c10 -14 19 -26 22 -26 7 0 -17 39 -28 46 -6 3 -3 -5 6 -20z"/>
<path d="M3490 847 l5 -52 3 44 c2 24 0 47 -5 52 -4 4 -6 -15 -3 -44z"/>
<path d="M3820 880 c0 -24 35 -28 44 -4 9 23 8 24 -19 24 -18 0 -25 -5 -25
-20z"/>
<path d="M2580 836 c0 -19 4 -37 9 -41 16 -9 62 17 56 33 -3 7 -5 20 -5 28 0
9 -11 14 -30 14 -28 0 -30 -3 -30 -34z"/>
<path d="M3620 830 c0 -5 5 -10 10 -10 6 0 10 5 10 10 0 6 -4 10 -10 10 -5 0
-10 -4 -10 -10z"/>
<path d="M1771 814 c0 -11 3 -14 6 -6 3 7 2 16 -1 19 -3 4 -6 -2 -5 -13z"/>
<path d="M1080 811 c0 -6 4 -13 10 -16 6 -3 7 1 4 9 -7 18 -14 21 -14 7z"/>
<path d="M1830 808 c6 -7 10 -27 10 -46 0 -18 7 -40 15 -48 8 -9 15 -11 15 -6
0 6 3 18 6 26 4 11 2 15 -7 11 -10 -4 -14 3 -16 21 0 14 -8 33 -17 40 -9 8
-11 9 -6 2z"/>
<path d="M1866 798 c-3 -13 -1 -27 4 -32 7 -7 10 -6 10 3 0 7 4 10 9 7 5 -4 7
3 4 14 -8 30 -20 33 -27 8z"/>
<path d="M3441 808 c-1 -9 -8 -21 -17 -26 -11 -6 -14 -16 -9 -31 3 -12 11 -19
16 -16 5 4 9 -3 9 -14 0 -12 5 -21 10 -21 12 0 12 64 0 100 -5 16 -8 19 -9 8z"/>
<path d="M1360 801 c0 -7 -4 -9 -10 -6 -5 3 -10 1 -10 -4 0 -6 6 -11 13 -11 9
0 9 -2 0 -8 -9 -6 -7 -11 7 -19 30 -19 43 6 19 36 -10 13 -19 18 -19 12z"/>
<path d="M3615 800 c3 -5 1 -10 -4 -10 -6 0 -11 -4 -11 -10 0 -5 7 -10 15 -10
8 0 15 9 15 20 0 11 -5 20 -11 20 -5 0 -7 -4 -4 -10z"/>
<path d="M1160 775 c7 -8 17 -12 22 -9 6 4 5 10 -3 15 -22 14 -33 10 -19 -6z"/>
<path d="M1070 776 c0 -2 7 -6 15 -10 8 -3 15 -1 15 4 0 6 -7 10 -15 10 -8 0
-15 -2 -15 -4z"/>
<path d="M3655 771 c-6 -6 -23 -17 -40 -26 l-30 -17 29 7 c17 3 35 12 40 20 6
7 20 15 31 18 20 5 20 5 0 6 -12 0 -25 -3 -30 -8z"/>
<path d="M1112 750 c0 -14 2 -19 5 -12 2 6 2 18 0 25 -3 6 -5 1 -5 -13z"/>
<path d="M1756 753 c-6 -14 -5 -15 5 -6 7 7 10 15 7 18 -3 3 -9 -2 -12 -12z"/>
<path d="M1808 763 c7 -3 16 -2 19 1 4 3 -2 6 -13 5 -11 0 -14 -3 -6 -6z"/>
<path d="M1700 696 c10 -35 26 -76 35 -92 9 -16 14 -20 10 -10 -5 17 -24 139
-25 159 0 4 -8 7 -19 7 -18 0 -18 -2 -1 -64z"/>
<path d="M1078 743 c7 -3 16 -2 19 1 4 3 -2 6 -13 5 -11 0 -14 -3 -6 -6z"/>
<path d="M2411 738 c-1 -9 9 -29 22 -44 l23 -26 1 43 c0 25 -1 32 -4 17 -2
-16 -8 -28 -13 -28 -5 0 -13 12 -18 28 -6 16 -11 20 -11 10z"/>
<path d="M4013 743 c9 -2 23 -2 30 0 6 3 -1 5 -18 5 -16 0 -22 -2 -12 -5z"/>
<path d="M1786 723 c-6 -14 -5 -15 5 -6 7 7 10 15 7 18 -3 3 -9 -2 -12 -12z"/>
<path d="M2380 728 c0 -15 25 -48 36 -48 5 0 -7 22 -26 50 -8 13 -10 13 -10
-2z"/>
<path d="M3791 728 c-22 -8 -23 -10 -10 -23 17 -17 82 -10 76 8 -5 17 -40 25
-66 15z"/>
<path d="M1010 710 c0 -5 5 -10 11 -10 5 0 7 5 4 10 -3 6 -8 10 -11 10 -2 0
-4 -4 -4 -10z"/>
<path d="M1465 710 c-3 -5 -1 -10 4 -10 6 0 11 5 11 10 0 6 -2 10 -4 10 -3 0
-8 -4 -11 -10z"/>
<path d="M1510 710 c0 -5 5 -10 11 -10 5 0 7 5 4 10 -3 6 -8 10 -11 10 -2 0
-4 -4 -4 -10z"/>
<path d="M1880 701 c0 -10 -3 -28 -6 -38 -5 -15 -4 -15 5 -3 9 13 11 13 11 -2
0 -10 5 -18 10 -18 13 0 13 17 -1 26 -6 3 -9 15 -6 25 3 10 1 22 -4 25 -5 3
-9 -4 -9 -15z"/>
<path d="M1017 679 c7 -7 15 -10 18 -7 3 3 -2 9 -12 12 -14 6 -15 5 -6 -5z"/>
<path d="M1378 668 c14 -14 16 -52 3 -44 -13 8 -8 -19 6 -36 7 -8 15 -34 18
-58 10 -71 14 -77 31 -52 8 12 19 20 24 17 5 -3 8 4 7 16 l-1 21 -18 -22 c-15
-19 -19 -20 -24 -6 -3 9 -4 27 -2 41 3 13 2 22 -2 20 -4 -3 -10 6 -12 20 -3
15 -1 25 6 25 6 0 4 5 -4 10 -12 7 -12 12 -2 22 9 9 12 9 12 -2 0 -7 3 -10 7
-7 9 10 -27 47 -46 47 -12 0 -12 -3 -3 -12z"/>
<path d="M3597 664 c4 -12 0 -14 -21 -8 -16 4 -26 2 -26 -5 0 -6 11 -11 24
-11 14 0 27 -4 30 -9 8 -12 -84 -1 -117 14 -15 8 -25 11 -23 7 2 -4 -8 -16
-23 -26 -14 -11 -23 -16 -19 -12 3 4 -3 17 -14 28 -11 11 -21 18 -22 16 -22
-25 -42 -125 -37 -183 2 -23 19 -101 26 -117 6 -15 2 -18 -24 -18 -35 0 -36
-3 -24 -123 5 -60 8 -67 28 -67 38 0 58 23 53 61 -3 19 -8 42 -13 51 -4 11 -3
18 4 18 6 0 13 -12 17 -28 9 -43 16 -58 21 -46 2 6 15 9 29 6 28 -5 74 30 74
57 0 12 2 13 9 3 6 -10 10 -10 21 2 14 17 6 51 -10 41 -9 -6 -15 29 -11 62 1
6 -3 14 -9 18 -5 3 -10 19 -10 36 0 16 -4 29 -10 29 -19 0 -10 28 10 33 12 3
21 14 22 29 2 32 1 39 -7 73 -6 27 -5 28 8 13 8 -10 16 -15 19 -12 3 3 8 -6
12 -19 5 -20 11 -23 31 -19 14 2 25 11 25 18 0 27 -25 94 -37 98 -7 3 -10 -1
-6 -10z m-190 -66 c-3 -8 -6 -5 -6 6 -1 11 2 17 5 13 3 -3 4 -12 1 -19z m98
-37 c3 -5 1 -12 -5 -16 -5 -3 -10 1 -10 9 0 18 6 21 15 7z"/>
<path d="M3752 650 c0 -14 2 -19 5 -12 2 6 2 18 0 25 -3 6 -5 1 -5 -13z"/>
<path d="M1335 650 c3 -5 11 -10 16 -10 6 0 7 5 4 10 -3 6 -11 10 -16 10 -6 0
-7 -4 -4 -10z"/>
<path d="M1580 628 c0 -36 10 -32 14 6 2 14 -1 26 -5 26 -5 0 -9 -14 -9 -32z"/>
<path d="M1290 639 c0 -5 9 -9 20 -9 11 0 20 2 20 4 0 2 -9 6 -20 9 -11 3 -20
1 -20 -4z"/>
<path d="M1530 639 c0 -5 5 -7 10 -4 6 3 10 8 10 11 0 2 -4 4 -10 4 -5 0 -10
-5 -10 -11z"/>
<path d="M1466 622 c-7 -11 3 -70 13 -76 8 -5 7 72 -1 80 -3 3 -9 1 -12 -4z"/>
<path d="M1285 610 c3 -5 8 -10 11 -10 2 0 4 5 4 10 0 6 -5 10 -11 10 -5 0 -7
-4 -4 -10z"/>
<path d="M1888 613 c7 -3 16 -2 19 1 4 3 -2 6 -13 5 -11 0 -14 -3 -6 -6z"/>
<path d="M1012 558 c9 -7 19 -22 21 -33 3 -12 5 -8 4 10 -1 21 -8 31 -22 33
-18 3 -19 3 -3 -10z"/>
<path d="M1590 560 c-12 -8 -11 -10 8 -10 12 0 22 -5 22 -11 0 -5 4 -8 10 -4
12 7 1 35 -14 35 -6 0 -18 -5 -26 -10z"/>
<path d="M983 539 c2 -12 9 -25 15 -27 17 -5 15 23 -3 38 -13 11 -15 9 -12
-11z"/>
<path d="M2772 535 c0 -16 2 -22 5 -12 2 9 2 23 0 30 -3 6 -5 -1 -5 -18z"/>
<path d="M1868 543 c7 -3 16 -2 19 1 4 3 -2 6 -13 5 -11 0 -14 -3 -6 -6z"/>
<path d="M3657 526 c-11 -39 4 -51 34 -27 13 11 19 20 12 21 -6 0 -15 -6 -20
-12 -5 -9 -9 -3 -13 17 l-6 30 -7 -29z"/>
<path d="M1818 513 c7 -3 16 -2 19 1 4 3 -2 6 -13 5 -11 0 -14 -3 -6 -6z"/>
<path d="M3595 500 c3 -5 8 -10 11 -10 2 0 4 5 4 10 0 6 -5 10 -11 10 -5 0 -7
-4 -4 -10z"/>
<path d="M1344 492 c3 -6 -2 -12 -11 -14 -15 -3 -14 -5 5 -10 24 -7 32 15 10
28 -6 4 -8 3 -4 -4z"/>
<path d="M1470 470 c0 -5 5 -10 11 -10 5 0 7 5 4 10 -3 6 -8 10 -11 10 -2 0
-4 -4 -4 -10z"/>
<path d="M3611 464 c0 -11 3 -14 6 -6 3 7 2 16 -1 19 -3 4 -6 -2 -5 -13z"/>
<path d="M3309 453 c-13 -16 -12 -17 4 -4 16 13 21 21 13 21 -2 0 -10 -8 -17
-17z"/>
<path d="M1283 453 c-16 -6 -17 -33 -2 -33 8 0 10 -17 6 -54 -5 -53 -5 -55 23
-65 l29 -9 -4 40 c-6 66 -15 96 -31 102 -9 3 -12 10 -9 16 7 11 6 11 -12 3z"/>
<path d="M1247 444 c-4 -4 -7 -14 -7 -23 0 -11 3 -12 11 -4 6 6 10 16 7 23 -2
6 -7 8 -11 4z"/>
<path d="M2900 361 c0 -5 9 -7 20 -4 11 3 20 7 20 9 0 2 -9 4 -20 4 -11 0 -20
-4 -20 -9z"/>
<path d="M3650 365 c0 -10 61 -35 87 -35 22 1 16 5 -27 20 -63 22 -60 21 -60
15z"/>
<path d="M1425 342 c-5 -4 -11 -17 -13 -29 -4 -26 22 -32 32 -7 4 9 2 13 -5 8
-8 -4 -9 1 -4 15 7 23 5 25 -10 13z"/>
<path d="M1498 333 c6 -2 18 -2 25 0 6 3 1 5 -13 5 -14 0 -19 -2 -12 -5z"/>
<path d="M3140 326 c0 -2 7 -7 16 -10 8 -3 12 -2 9 4 -6 10 -25 14 -25 6z"/>
<path d="M2380 296 c0 -9 5 -16 10 -16 6 0 10 4 10 9 0 6 -4 13 -10 16 -5 3
-10 -1 -10 -9z"/>
<path d="M2792 265 c0 -16 2 -22 5 -12 2 9 2 23 0 30 -3 6 -5 -1 -5 -18z"/>
<path d="M3183 232 c5 -41 11 -47 28 -25 9 11 10 14 2 9 -7 -4 -14 -2 -14 3
-3 26 -4 30 -12 37 -4 4 -6 -7 -4 -24z"/>
<path d="M2960 242 c0 -4 -18 -6 -40 -4 -39 4 -40 3 -31 -19 5 -13 14 -23 20
-22 6 2 11 -11 11 -31 0 -19 6 -36 13 -39 8 -3 22 -21 31 -41 20 -43 37 -47
31 -8 -4 21 -12 117 -15 165 0 9 -20 9 -20 -1z m9 -87 c0 -5 -6 -1 -14 9 -8
10 -11 24 -8 29 6 10 21 -16 22 -38z"/>
<path d="M2590 222 c-20 -16 -21 -19 -6 -31 11 -9 16 -10 16 -2 0 7 9 9 25 5
15 -4 25 -2 25 5 0 6 7 11 16 11 14 0 14 3 4 15 -17 20 -53 19 -80 -3z"/>
<path d="M1550 201 c0 -11 4 -21 9 -21 18 0 21 18 6 30 -13 10 -15 9 -15 -9z"/>
<path d="M3196 179 c-13 -12 -15 -19 -7 -19 8 0 11 -6 7 -15 -3 -8 0 -14 7
-12 7 1 11 -6 11 -15 -3 -29 13 -20 19 11 6 29 -1 71 -12 70 -3 0 -15 -9 -25
-20z m30 -36 c-10 -10 -19 5 -10 18 6 11 8 11 12 0 2 -7 1 -15 -2 -18z"/>
<path d="M1605 181 c-3 -5 -1 -12 4 -15 5 -3 11 1 15 9 6 16 -9 21 -19 6z"/>
<path d="M2194 178 c-4 -6 -3 -13 2 -17 5 -3 9 -10 10 -16 1 -24 17 -65 25
-65 5 0 9 24 9 53 0 45 -3 53 -20 54 -11 1 -23 -3 -26 -9z"/>
<path d="M1840 159 c-13 -23 -10 -61 5 -57 8 2 16 78 8 78 -1 0 -7 -9 -13 -21z"/>
<path d="M3126 155 c8 -37 14 -45 14 -19 0 10 -5 26 -10 34 -8 11 -9 7 -4 -15z"/>
<path d="M2640 116 c0 -2 7 -6 15 -10 8 -3 15 -1 15 4 0 6 -7 10 -15 10 -8 0
-15 -2 -15 -4z"/>
</g>
</svg>
